<svg width="36" height="38" viewBox="0 0 36 38" fill="none" xmlns="http://www.w3.org/2000/svg">
<path d="M27.4767 12.392L27.4767 7.95782C28.0636 7.68406 28.5599 7.24939 28.9085 6.70443C29.2571 6.15966 29.4443 5.52706 29.4462 4.88023L29.4462 4.77841C29.4462 2.89263 27.9179 1.36388 26.0311 1.36388L25.9307 1.36388C25.0247 1.36388 24.1561 1.72363 23.516 2.36398C22.8759 3.00432 22.5155 3.87281 22.5155 4.77841L22.5155 4.88023C22.5195 5.52706 22.7046 6.15966 23.0532 6.70443C23.4018 7.24939 23.8981 7.68406 24.485 7.95782L24.485 12.392C22.8011 12.6498 21.2137 13.3482 19.8863 14.416L7.72652 4.94436C7.81317 4.63131 7.85847 4.30947 7.86241 3.98638C7.86438 3.22542 7.63987 2.48108 7.21839 1.84757C6.79692 1.21406 6.19622 0.719796 5.49508 0.427325C4.79196 0.134853 4.01795 0.057295 3.27151 0.204476C2.52507 0.351657 1.83967 0.71694 1.30003 1.25416C0.760382 1.79136 0.394093 2.47636 0.244411 3.22246C0.0947284 3.96859 0.169527 4.74231 0.459044 5.44572C0.75053 6.14922 1.24295 6.75091 1.87517 7.17455C2.50738 7.59819 3.24985 7.82488 4.01008 7.82586C4.67577 7.82271 5.32965 7.64506 5.90475 7.31044L17.8793 16.6288C16.804 18.2538 16.2427 20.1654 16.2702 22.114C16.2959 24.0628 16.9084 25.9583 18.029 27.5536L14.3874 31.197C14.092 31.1028 13.7847 31.0528 13.4755 31.0487C12.8512 31.0491 12.2407 31.2348 11.7227 31.5822C11.2027 31.9294 10.799 32.423 10.5587 33.0001C10.3204 33.5773 10.2593 34.2123 10.3795 34.825C10.5016 35.4375 10.8029 36.0002 11.2441 36.442C11.6872 36.8835 12.2485 37.1845 12.861 37.3064C13.4735 37.4285 14.1097 37.3661 14.6867 37.1273C15.2638 36.8884 15.7581 36.4839 16.1048 35.9647C16.4514 35.4456 16.6385 34.835 16.6385 34.2105C16.6346 33.9013 16.5834 33.5946 16.4888 33.3002L20.0931 29.6958C21.2689 30.6004 22.6337 31.2242 24.0872 31.519C25.5407 31.8138 27.0415 31.7723 28.4772 31.3973C29.911 31.0223 31.2404 30.3239 32.363 29.3555C33.4876 28.3873 34.3739 27.1749 34.9549 25.811C35.5379 24.4471 35.7999 22.9682 35.7211 21.4875C35.6443 20.0067 35.2287 18.5634 34.5059 17.2683C33.785 15.9729 32.7766 14.8599 31.5575 14.0148C30.3384 13.1695 28.944 12.6145 27.4767 12.392ZM25.9839 26.9753C25.3182 26.9937 24.6544 26.8783 24.034 26.6362C23.4136 26.3939 22.8484 26.03 22.3718 25.5654C21.8932 25.1008 21.515 24.5454 21.2551 23.9317C20.9951 23.318 20.8631 22.6586 20.8631 21.9925C20.8631 21.3264 20.9951 20.667 21.2551 20.0533C21.515 19.4396 21.8932 18.884 22.3718 18.4196C22.8484 17.955 23.4136 17.5911 24.034 17.3488C24.6544 17.1066 25.3182 16.9913 25.9839 17.0097C27.2739 17.0548 28.4969 17.5991 29.395 18.5279C30.2911 19.4566 30.7934 20.6974 30.7953 21.9888C30.7953 23.2802 30.2951 24.5213 29.3989 25.4511C28.5008 26.3808 27.2798 26.9263 25.9897 26.9728" fill="#FF7A59"/>
</svg>
