<svg width="800" height="800" viewBox="0 0 800 800" fill="none" xmlns="http://www.w3.org/2000/svg">
<path d="M337.875 194.825C361.725 169.75 395.375 154.125 432.65 154.125C432.675 154.125 432.725 154.125 432.75 154.125C482.025 154.775 524.775 182.025 547.375 222.15L547.725 222.825C566.45 213.975 588.4 208.8 611.55 208.8C612.125 208.8 612.675 208.8 613.225 208.8H613.15C702.125 209.925 773.8 282.325 773.8 371.425C773.8 460.725 701.825 533.225 612.7 534.075H612.625C601.3 533.925 590.325 532.75 579.7 530.65L580.85 530.85C560.6 567.325 522.3 591.6 478.35 591.6C478.25 591.6 478.125 591.6 478.025 591.6C459.325 591.425 441.7 587.125 425.9 579.6L426.65 579.925C405.65 628.5 358.15 661.875 302.85 661.875C245.25 661.875 196.125 625.675 176.95 574.775L176.65 573.85C169.675 575.375 161.675 576.25 153.475 576.25C152.6 576.25 151.7 576.25 150.825 576.225H150.95C81.9498 575.875 26.1748 519.875 26.1748 450.85C26.1748 450.575 26.1748 450.275 26.1748 450V450.05C26.1748 450.025 26.1748 450.025 26.1748 450C26.1748 403.65 51.0748 363.1 88.2248 341L88.7998 340.675C81.1248 323.825 76.6498 304.15 76.6498 283.425C76.6498 283.325 76.6498 283.225 76.6498 283.15C76.7248 203.175 141.55 138.375 221.525 138.3C221.675 138.3 221.875 138.3 222.05 138.3C268.725 138.3 310.325 160.1 337.175 194.075L337.4 194.375L337.875 194.825Z" fill="#009DDC"/>
</svg>